<?xml version="1.0" encoding="UTF-8" standalone="no"?>
<!-- Created with Inkscape (http://www.inkscape.org/) -->

<svg
   width="64"
   height="64"
   version="1.1"
   viewBox="0 0 16.933 16.933"
   id="svg10"
   sodipodi:docname="user-identity.svg"
   inkscape:version="1.4.2 (ebf0e940d0, 2025-05-08)"
   xmlns:inkscape="http://www.inkscape.org/namespaces/inkscape"
   xmlns:sodipodi="http://sodipodi.sourceforge.net/DTD/sodipodi-0.dtd"
   xmlns="http://www.w3.org/2000/svg"
   xmlns:svg="http://www.w3.org/2000/svg"
   xmlns:rdf="http://www.w3.org/1999/02/22-rdf-syntax-ns#"
   xmlns:cc="http://creativecommons.org/ns#"
   xmlns:dc="http://purl.org/dc/elements/1.1/">
  <sodipodi:namedview
     id="namedview10"
     pagecolor="#ffffff"
     bordercolor="#000000"
     borderopacity="0.25"
     inkscape:showpageshadow="2"
     inkscape:pageopacity="0.0"
     inkscape:pagecheckerboard="0"
     inkscape:deskcolor="#d1d1d1"
     inkscape:zoom="9.0546875"
     inkscape:cx="26.505608"
     inkscape:cy="23.081967"
     inkscape:window-width="1280"
     inkscape:window-height="1366"
     inkscape:window-x="0"
     inkscape:window-y="0"
     inkscape:window-maximized="0"
     inkscape:current-layer="g4" />
  <defs
     id="defs1">
    <filter
       id="filter2076-6"
       x="-0.048000001"
       y="-0.048000001"
       width="1.096"
       height="1.096"
       color-interpolation-filters="sRGB">
      <feGaussianBlur
         stdDeviation="1.1"
         id="feGaussianBlur1" />
    </filter>
  </defs>
  <metadata
     id="metadata1">
    <rdf:RDF>
      <cc:Work
         rdf:about="">
        <dc:format>image/svg+xml</dc:format>
        <dc:type
           rdf:resource="http://purl.org/dc/dcmitype/StillImage" />
      </cc:Work>
    </rdf:RDF>
  </metadata>
  <g
     transform="translate(21.128 -1.5662)"
     id="g4">
    <rect
       transform="matrix(.26458 0 0 .26458 -21.128 1.5662)"
       x="4.5"
       y="4.5"
       width="55"
       height="55"
       rx="13.002"
       ry="13.002"
       filter="url(#filter2076-6)"
       opacity=".3"
       id="rect1" />
    <path
       d="m-16.497 2.7568c-1.9058 0-3.44 1.5342-3.44 3.44v7.6717c0 1.9058 1.5342 3.44 3.44 3.44h7.6717c1.9058 0 3.44-1.5342 3.44-3.44v-7.6717c0-1.9058-1.5342-3.44-3.44-3.44z"
       fill="#212121"
       stroke-linecap="round"
       stroke-width=".079373"
       style="paint-order:stroke fill markers;fill:#62a0ea;fill-opacity:1"
       id="path1" />
    <path
       d="m-16.276 4.3443c-1.1488 0-2.0737 0.92498-2.0737 2.0737v7.2294c0 1.1488 0.92498 2.0737 2.0737 2.0737h7.2294c1.1488 0 2.0737-0.92498 2.0737-2.0737v-7.2294c0-1.1488-0.92498-2.0737-2.0737-2.0737z"
       fill="#fafafa"
       stroke-linecap="round"
       stroke-width=".079373"
       style="paint-order:stroke fill markers"
       id="path2" />
    <path
       d="m-16.864 5.7939c5e-3 0.04062 0.0099 0.08118 0.01548 0.12163h8.376c0.0052-0.0437 0.0097-0.07849 0.01437-0.12163z"
       fill="#464646"
       opacity=".6"
       stroke-width=".67718"
       style="paint-order:normal;fill:#3584e4;fill-opacity:1"
       id="path3" />
    <path
       d="m-19.376 5.1561c-0.31183 0-0.56274 0.25092-0.56274 0.56274v1.8278c0 0.02268 0.0041 0.04418 0.0067 0.06615-0.0055 0.54053-0.0052 1.1567-0.0052 1.9652v0.22427h-5.16e-4v4.0663c0 0.03645 0.0041 0.07184 0.0052 0.108 2e-3 0.05118 0.0031 0.10258 0.0078 0.15296 0.12639 1.6956 1.4693 3.0388 3.1646 3.1662 0.08518 0.0081 0.17144 0.0128 0.25941 0.01292 0.0012 3e-6 0.0024 0 0.0036 0h7.6717c0.08936 0 0.17707-0.0047 0.26354-0.01292 1.691-0.12755 3.0311-1.4649 3.1625-3.1548 0.0087-0.08956 0.01395-0.18019 0.01395-0.27233v-4.1439c1.6e-5 -0.0018 5.17e-4 -0.0034 5.17e-4 -0.0052v-1.8278c0-0.31183-0.25092-0.56274-0.56274-0.56274h-6.0068c-0.27152 0-0.48409-0.01833-0.66041-0.06511s-0.31607-0.12227-0.44079-0.23564-0.23465-0.2648-0.35139-0.46456c-0.11674-0.19977-0.24036-0.44746-0.39273-0.75343-0.07349-0.18081-0.17612-0.31227-0.28835-0.4072s-0.23385-0.15348-0.34674-0.18965c-0.22578-0.07234-0.41495-0.05426-0.41495-0.05426h-2.5533c-0.01048-5.75e-4 -0.02036-0.0031-0.03101-0.0031h-0.91517z"
       fill="#464646"
       stroke-width=".26458"
       id="path4"
       style="fill:#99c1f1;fill-opacity:1" />
  </g>
  <g
     transform="matrix(.59327 0 0 .59327 3.3847 5.8213)"
     id="g10">
    <path
       d="m7.2242 8.556v0.39835s0.10755 0.85578-0.50008 1.1723c-0.60764 0.31647-2.6192 1.2658-2.7272 1.4416-0.10802 0.17582-0.26993 0.68298 0.18917 0.81192h8.7592c0.45911-0.12893 0.2972-0.6361 0.18917-0.81192s-2.1196-1.1251-2.7272-1.4416c-0.60764-0.31647-0.50008-1.1723-0.50008-1.1723v-0.39835h-1.3415z"
       fill="#fff"
       id="path5" />
    <g
       transform="translate(.10535)"
       id="g9">
      <path
         d="m10.452 6.6018c-0.26458 1.8862-0.88842 2.8929-1.9843 2.8929-1.0959 1e-7 -1.7198-1.0067-1.9843-2.8929-0.2414-1.7209 0-3.1436 1.9843-3.1436s2.2257 1.4227 1.9843 3.1436z"
         fill="#f0f0f0"
         id="path6" />
      <path
         d="m10.492 6.1701s0.6201-0.024804 0.45474 0.5953c-0.16536 0.6201-0.47955 1.2816-0.82681 1.356-0.34726 0.074413 0.27285-1.9265 0.37206-1.9513z"
         fill="#fafafa"
         id="path7" />
      <path
         d="m6.4284 6.1117s-0.6201-0.024804-0.45474 0.5953c0.16536 0.6201 0.47955 1.2816 0.82681 1.356 0.34726 0.074413-0.27285-1.9265-0.37206-1.9513z"
         fill="#fafafa"
         id="path8" />
      <path
         d="m10.452 6.6018c-0.26458 1.8862-0.88842 2.8929-1.9843 2.8929-1.0959 1e-7 -1.7198-1.0067-1.9843-2.8929-0.2414-1.7209 0-3.1436 1.9843-3.1436s2.2257 1.4227 1.9843 3.1436z"
         fill="#fff"
         id="path9" />
    </g>
  </g>
</svg>
