<?xml version="1.0" encoding="UTF-8" standalone="no"?>
<svg
   viewBox="0 0 374 400"
   version="1.1"
   id="svg4"
   sodipodi:docname="penguin-blue.svg"
   width="374"
   height="400"
   inkscape:version="1.3.2 (091e20ef0f, 2023-11-25)"
   xmlns:inkscape="http://www.inkscape.org/namespaces/inkscape"
   xmlns:sodipodi="http://sodipodi.sourceforge.net/DTD/sodipodi-0.dtd"
   xmlns="http://www.w3.org/2000/svg"
   xmlns:svg="http://www.w3.org/2000/svg">
  <defs
     id="defs4" />
  <sodipodi:namedview
     id="namedview4"
     pagecolor="#ffffff"
     bordercolor="#000000"
     borderopacity="0.25"
     inkscape:showpageshadow="2"
     inkscape:pageopacity="0.0"
     inkscape:pagecheckerboard="0"
     inkscape:deskcolor="#d1d1d1"
     inkscape:zoom="0.89065367"
     inkscape:cx="273.39471"
     inkscape:cy="70.17318"
     inkscape:window-width="1272"
     inkscape:window-height="979"
     inkscape:window-x="26"
     inkscape:window-y="23"
     inkscape:window-maximized="0"
     inkscape:current-layer="svg4" />
  <rect
     style="opacity:1;fill:#a4caee;fill-opacity:0.99821478;stroke-width:1.00027"
     id="rect1"
     width="374.47855"
     height="399.41254"
     x="0.10854358"
     y="0.54271799" />
  <path
     fill="#231f20"
     d="m 276.746,224.18297 c 0.511,10.615 1.453,22.675 -0.101,33.22 -3.376,22.785 -12.446,42.953 -27.214,60.505 -6.028,7.153 -13.351,13.398 -22.399,16.246 -0.366,0.116 -0.548,0.526 -0.385,0.876 3.313,7.061 2.167,13.147 -6.438,14.646 -10.399,1.817 -25.022,1.748 -32.3,-6.925 -3.996,-4.758 -2.224,-8.175 -0.466,-13.261 0.113,-0.327 -0.033,-0.687 -0.34,-0.852 -3.784,-2.043 -7.342,-4.386 -10.671,-7.029 -2.838,-2.237 -13.578,-3.144 -17.972,-3.462 -4.371,-0.318 -8.582,-1.271 -12.953,-1.896 -0.375,-0.053 -0.759,0.028 -1.09,0.226 -7.697,4.577 -14.635,7.414 -23.229,2.716 -7.402,-4.055 -9.809,-10.424 -10.126,-18.088 -0.03,-0.668 -0.355,-1.287 -0.886,-1.681 -38.112,-28.451 -24.159,-84.336 -7.697,-120.305 0.162,-0.348 -0.111,-0.742 -0.495,-0.709 -0.044,0.003 -0.087,0.012 -0.13,0.028 -3.746,1.317 -7.766,2.306 -11.33,3.759 -10.331,4.231 -20.673,8.42 -31.029,12.567 -5.902,2.373 -17.198,6.643 -22.284,1.556 -7.517,-7.527 6.129,-24.103 11.239,-29.758 21.945,-24.252 50.294,-38.399 81.673,-46.279 0.364,-0.09 0.659,-0.28 0.886,-0.567 9.369,-11.763 20.506,-21.535 33.411,-29.316 0.402,-0.241 0.848,-0.889 1.34,-1.941 1.136,-2.428 2.259,-4.859 3.372,-7.289 14.441,-31.507002 50.532,-45.892002 81.82,-29.055002 2.58,1.386 5.345,3.535 8.289,6.45 19.765,19.551002 21.854,44.631002 12.453,70.098002 -0.179,0.494 -0.248,1.024 -0.204,1.555 0.537,5.859 1.076,11.827 1.612,17.906 0.069,0.763 0.298,1.468 0.693,2.111 5.963,9.87 12.832,19.06 20.606,27.568 15.1,16.519 32.174,33.493 34.41,56.894 0.693,7.186 -0.056,20.333 -10.263,20.675 -6.414,0.214 -13.873,-9.197 -18.017,-12.988 -6.596,-6.03 -15.746,-12.083 -23.421,-18.383 -0.14,-0.105 -0.342,-0.019 -0.363,0.154 -0.001,0.009 -0.001,0.019 -0.001,0.028 z m -95.955,-120.714 c -3.94,1.964 -10.251,-3.565 -12.885,-6.391 -0.47,-0.51 -0.996,-0.581 -1.578,-0.218 -12.526,7.866 -23.036,17.407 -31.528,28.624 -0.544,0.719 -1.108,1.117 -1.691,1.192 -10.718,1.398 -20.538,5.587 -31.164,9.991 -20.283,8.387 -37.491,20.967 -51.622,37.739 -3.61,4.293 -8.22,10.697 -8.911,16.363 -0.087,0.723 0.462,1.367 1.191,1.397 2.437,0.098 4.939,-0.269 7.504,-1.102 9.174,-2.959 18.161,-6.412 26.963,-10.355 9.355,-4.189 18.688,-7.801 29.019,-9.344 8.094,-1.214 13.249,-2.032 19.959,-4.849 1.974,-0.829 4.473,-0.852 5.142,1.441 1.737,6.009 -16.302,8.631 -19.867,9.163 -0.599,0.086 -1.119,0.474 -1.374,1.034 -15.554,33.71 -30.881,83.133 0.726,113.539 0.335,0.334 0.904,0.179 1.025,-0.277 0.01,-0.036 0.016,-0.073 0.019,-0.109 0.443,-5.088 4.361,-11.922 10.537,-11.217 2.27,0.259 4.076,0.68 6.448,0.363 6.531,-0.879 12.181,0.829 16.949,5.119 2.078,1.887 3.907,4.768 5.961,7.119 2.293,2.619 3.622,4.494 3.985,5.621 1.34,4.101 -1.373,8.515 -4.257,11.501 -0.383,0.407 -0.193,1.073 0.345,1.202 0.024,0.006 0.05,0.01 0.075,0.014 7.947,1.124 16.417,1.338 24.295,3.44 3.973,1.055 6.903,3.894 10.388,6.141 12.351,7.983 30.518,12.58 43.971,5.2 23.557,-12.932 40.495,-52.909 40.564,-78.613 0.056,-21.391 -2.385,-45.892 -4.213,-68.69 -0.602,-7.573 0.011,-17.055 -0.239,-24.23 -0.226,-6.517 -0.563,-13.077 -1.009,-19.676 -0.039,-0.625 -0.521,-1.135 -1.147,-1.214 -2.418,-0.285 -12.614,-1.09 -8.64,-6.187 7.391,-9.472 12.159,-16.476 10.525,-29.159 -1.033,-7.947 -8.345,-16.984 -16.849,-11.296 -2.599,1.737 -3.281,4.245 -3.553,7.186 -0.783,8.47 0.716,15.237 -9.808,17.44 -6.087,1.259 -14.805,3.394 -19.084,-2.634 -2.666,-3.738 -5.027,-8.433 -7.085,-14.079 -0.606,-1.65 -0.341,-3.092 0.793,-4.326 1.737,-1.884 4.43,-3.677 5.7,-6.3 1.854,-3.807 2.497,-7.898 1.93,-12.275 -1.158,-8.878002 -11.114,-8.264002 -17.131,-5.676002 -15.088,6.505002 -20.753,19.358002 -19.357,35.583002 0.061,0.753 -0.345,1.469 -1.022,1.805 z m 46.977,-3.677 c 2.045,0.223 3.962,-1.991 4.283,-4.946 0.321,-2.957 -1.076,-5.532 -3.12,-5.754 -2.045,-0.222 -3.963,1.993 -4.284,4.95 -0.322,2.952 1.076,5.528 3.121,5.75 z m 94.799,139.742 c 0.239,-17.715 -11.353,-33.893 -22.888,-46.279 -9.028,-9.688 -17.543,-19.733 -25.544,-30.133 -0.635,-0.825 -0.953,-0.716 -0.953,0.33 0.022,15.622 1.363,30.995 2.372,46.561 0.228,3.44 0.897,4.995 3.429,7.063 6.502,5.304 12.496,9.982 17.984,14.032 6.72,4.974 11.943,10.038 17.597,15.645 6.436,6.381 7.947,-2.894 8.003,-7.219 z"
     id="path1" />
  <path
     fill="#ffffff"
     d="m 180.791,103.46897 c 0.677,-0.336 1.083,-1.052 1.022,-1.805 -1.396,-16.225 4.269,-29.078 19.357,-35.583002 6.017,-2.588 15.973,-3.202 17.131,5.676002 0.567,4.377 -0.076,8.468 -1.93,12.275 -1.27,2.623 -3.963,4.416 -5.7,6.3 -1.134,1.234 -1.399,2.676 -0.793,4.326 2.058,5.646 4.419,10.341 7.085,14.079 4.279,6.028 12.997,3.893 19.084,2.634 10.524,-2.203 9.025,-8.97 9.808,-17.44 0.272,-2.941 0.954,-5.449 3.553,-7.186 8.504,-5.688 15.816,3.349 16.849,11.296 1.634,12.683 -3.134,19.687 -10.525,29.159 -3.974,5.097 6.222,5.902 8.64,6.187 0.626,0.079 1.108,0.589 1.147,1.214 0.446,6.599 0.783,13.159 1.009,19.676 0.25,7.175 -0.363,16.657 0.239,24.23 1.828,22.798 4.269,47.299 4.213,68.69 -0.069,25.704 -17.007,65.681 -40.564,78.613 -13.453,7.38 -31.62,2.783 -43.971,-5.2 -3.485,-2.247 -6.415,-5.086 -10.388,-6.141 -7.878,-2.102 -16.348,-2.316 -24.295,-3.44 -0.547,-0.068 -0.809,-0.712 -0.47,-1.156 0.016,-0.02 0.032,-0.04 0.05,-0.06 2.884,-2.986 5.597,-7.4 4.257,-11.501 -0.363,-1.127 -1.692,-3.002 -3.985,-5.621 -2.054,-2.351 -3.883,-5.232 -5.961,-7.119 -4.768,-4.29 -10.418,-5.998 -16.949,-5.119 -2.372,0.317 -4.178,-0.104 -6.448,-0.363 -6.176,-0.705 -10.094,6.129 -10.537,11.217 -0.036,0.469 -0.568,0.724 -0.957,0.456 -0.03,-0.021 -0.061,-0.044 -0.087,-0.07 -31.607,-30.406 -16.28,-79.829 -0.726,-113.539 0.255,-0.56 0.775,-0.948 1.374,-1.034 3.565,-0.532 21.604,-3.154 19.867,-9.163 -0.669,-2.293 -3.168,-2.27 -5.142,-1.441 -6.71,2.817 -11.865,3.635 -19.959,4.849 -10.331,1.543 -19.664,5.155 -29.019,9.344 -8.802,3.943 -17.789,7.396 -26.963,10.355 -2.565,0.833 -5.067,1.2 -7.504,1.102 -0.729,-0.03 -1.278,-0.674 -1.191,-1.397 0.691,-5.666 5.301,-12.07 8.911,-16.363 14.131,-16.772 31.339,-29.352 51.622,-37.739 10.626,-4.404 20.446,-8.593 31.164,-9.991 0.583,-0.075 1.147,-0.473 1.691,-1.192 8.492,-11.217 19.002,-20.758 31.528,-28.624 0.582,-0.363 1.108,-0.292 1.578,0.218 2.634,2.826 8.945,8.355 12.885,6.391 z m 24.308,-14.601 2.826,-8.686 c 0.581,-1.782 -0.395,-3.701 -2.18,-4.28 l -2.771,-0.898 c -4.072,-1.318 -8.466,0.988 -9.819,5.156 l -0.011,0.045 c -1.349,4.164 0.85,8.608 4.916,9.935 l 2.77,0.909 c 1.779,0.572 3.69,-0.402 4.269,-2.181 z m 50.731,24.823 c 3.802,0.61 7.496,-2.717 8.25,-7.429 0.754,-4.711 -1.715,-9.025 -5.517,-9.632 -3.802,-0.609 -7.494,2.717 -8.25,7.427 -0.754,4.713 1.716,9.027 5.517,9.634 z"
     id="path2" />
  <path
     fill="#231f20"
     d="m 205.099,88.86797 c -0.579,1.779 -2.49,2.753 -4.269,2.181 l -2.77,-0.909 c -4.066,-1.327 -6.265,-5.771 -4.916,-9.935 l 0.011,-0.045 c 1.353,-4.168 5.747,-6.474 9.819,-5.156 l 2.771,0.898 c 1.785,0.579 2.761,2.498 2.18,4.28 z"
     id="path3" />
  <ellipse
     fill="#ffffff"
     transform="matrix(-0.10799098,0.99415187,-0.99415013,-0.10800702,0,0)"
     rx="5.381001"
     ry="3.7239997"
     id="ellipse3"
     cx="69.226265"
     cy="-237.21275" />
  <ellipse
     fill="#231f20"
     transform="matrix(-0.15814693,0.98741559,-0.9874119,-0.15816998,0,0)"
     rx="8.6400051"
     ry="6.9720016"
     id="ellipse4"
     cx="63.155434"
     cy="-270.59116" />
  <path
     fill="#ffffff"
     d="m 299.679,193.25497 c 11.535,12.386 23.127,28.564 22.888,46.279 -0.056,4.325 -1.567,13.6 -8.003,7.219 -5.654,-5.607 -10.877,-10.671 -17.597,-15.645 -5.488,-4.05 -11.482,-8.728 -17.984,-14.032 -2.532,-2.068 -3.201,-3.623 -3.429,-7.063 -1.009,-15.566 -2.35,-30.939 -2.372,-46.561 0,-1.046 0.318,-1.155 0.953,-0.33 8.001,10.4 16.516,20.445 25.544,30.133 z"
     id="path4" />
</svg>
