<?xml version="1.0" encoding="UTF-8" standalone="no"?>
<svg
   height="64"
   viewBox="0 0 64 64"
   width="64"
   version="1.1"
   id="svg47"
   sodipodi:docname="org.gnome.Loupe.svg"
   inkscape:version="1.4 (e7c3feb100, 2024-10-09)"
   xmlns:inkscape="http://www.inkscape.org/namespaces/inkscape"
   xmlns:sodipodi="http://sodipodi.sourceforge.net/DTD/sodipodi-0.dtd"
   xmlns:xlink="http://www.w3.org/1999/xlink"
   xmlns="http://www.w3.org/2000/svg"
   xmlns:svg="http://www.w3.org/2000/svg">
  <defs
     id="defs47">
    <linearGradient
       id="linearGradient15"
       gradientUnits="userSpaceOnUse">
      <stop
         offset="0"
         stop-color="#ffa348"
         id="stop13" />
      <stop
         offset="0.47483501"
         stop-color="#c061cb"
         id="stop14"
         style="stop-color:#c062cb;stop-opacity:1;" />
      <stop
         offset="1"
         stop-color="#1c71d8"
         id="stop15" />
    </linearGradient>
    <linearGradient
       id="linearGradient9"
       inkscape:collect="always">
      <stop
         style="stop-color:#ffa347;stop-opacity:1;"
         offset="0"
         id="stop10" />
      <stop
         style="stop-color:#c162cb;stop-opacity:1;"
         offset="0.5"
         id="stop12" />
      <stop
         style="stop-color:#1c70d8;stop-opacity:1;"
         offset="1"
         id="stop11" />
    </linearGradient>
    <linearGradient
       inkscape:collect="always"
       xlink:href="#linearGradient9"
       id="linearGradient11"
       x1="95.112701"
       y1="85.112701"
       x2="32.887302"
       y2="22.887302"
       gradientUnits="userSpaceOnUse"
       gradientTransform="matrix(0.52884565,0,0,0.52884565,-1.8461468,-1.8461431)" />
  </defs>
  <sodipodi:namedview
     id="namedview47"
     pagecolor="#ffffff"
     bordercolor="#000000"
     borderopacity="0.25"
     inkscape:showpageshadow="2"
     inkscape:pageopacity="0.0"
     inkscape:pagecheckerboard="0"
     inkscape:deskcolor="#d1d1d1"
     inkscape:zoom="5.8446795"
     inkscape:cx="25.236628"
     inkscape:cy="44.912642"
     inkscape:window-width="1244"
     inkscape:window-height="1331"
     inkscape:window-x="26"
     inkscape:window-y="23"
     inkscape:window-maximized="0"
     inkscape:current-layer="svg47" />
  <clipPath
     id="a">
    <path
       d="M 2,2 H 126 V 126 H 2 Z m 0,0"
       id="path1" />
  </clipPath>
  <clipPath
     id="b">
    <path
       d="m 34.957031,2.382812 85.003909,22.777344 c 4.26562,1.144532 6.80078,5.53125 5.65625,9.796875 l -22.77735,85.003909 c -1.14453,4.26562 -5.531246,6.80078 -9.796871,5.65625 L 8.039062,102.83984 C 3.773438,101.69531 1.238281,97.308594 2.382812,93.042969 L 25.160156,8.039062 c 1.144532,-4.265624 5.53125,-6.796874 9.796875,-5.65625 z m 0,0"
       id="path2" />
  </clipPath>
  <linearGradient
     id="c"
     gradientUnits="userSpaceOnUse">
    <stop
       offset="0"
       stop-color="#ffa348"
       id="stop2" />
    <stop
       offset="0.474835"
       stop-color="#c061cb"
       id="stop3" />
    <stop
       offset="1"
       stop-color="#1c71d8"
       id="stop4" />
  </linearGradient>
  <linearGradient
     id="d"
     gradientTransform="matrix(-1.375,0,0,1.133334,124.5,-224.8001)"
     x1="31.003128"
     x2="71.043274"
     xlink:href="#linearGradient15"
     y1="257.06409"
     y2="220.17133" />
  <clipPath
     id="e">
    <path
       d="m 20,20 h 88 V 88 H 20 Z m 0,0"
       id="path4" />
  </clipPath>
  <clipPath
     id="f">
    <path
       d="M 106,20 H 22 c -1.105469,0 -2,0.894531 -2,2 v 64 c 0,1.105469 0.894531,2 2,2 h 84 c 1.10547,0 2,-0.894531 2,-2 V 22 c 0,-1.105469 -0.89453,-2 -2,-2 z m 0,0"
       id="path5" />
  </clipPath>
  <filter
     id="g"
     height="1"
     width="1"
     x="0"
     y="0">
    <feColorMatrix
       in="SourceGraphic"
       type="matrix"
       values="0 0 0 0 1 0 0 0 0 1 0 0 0 0 1 0 0 0 1 0"
       id="feColorMatrix5" />
  </filter>
  <mask
     id="h">
    <g
       filter="url(#g)"
       id="g5">
      <rect
         fill-opacity="0.568457"
         height="128"
         width="128"
         id="rect5"
         x="0"
         y="0" />
    </g>
  </mask>
  <linearGradient
     id="i"
     gradientUnits="userSpaceOnUse">
    <stop
       offset="0"
       stop-color="#ffffff"
       id="stop5" />
    <stop
       offset="1"
       stop-color="#ffffff"
       stop-opacity="0"
       id="stop6" />
  </linearGradient>
  <linearGradient
     id="j"
     gradientTransform="matrix(-0.707107,0.707107,0.707107,0.707107,110,-173.99998)"
     x1="212.80272"
     x2="290.80273"
     xlink:href="#i"
     y1="161.29305"
     y2="161.29305" />
  <clipPath
     id="k">
    <rect
       height="152"
       width="192"
       id="rect6"
       x="0"
       y="0" />
  </clipPath>
  <mask
     id="l">
    <g
       filter="url(#g)"
       id="g7">
      <rect
         fill-opacity="0.363132"
         height="128"
         width="128"
         id="rect7"
         x="0"
         y="0" />
    </g>
  </mask>
  <linearGradient
     id="m"
     gradientTransform="matrix(-0.707107,0.707107,0.707107,0.707107,111,-177.99998)"
     x1="202.23254"
     x2="240.79819"
     xlink:href="#i"
     y1="172.83113"
     y2="172.83113" />
  <clipPath
     id="n">
    <rect
       height="152"
       width="192"
       id="rect8"
       x="0"
       y="0" />
  </clipPath>
  <mask
     id="o">
    <g
       filter="url(#g)"
       id="g9">
      <rect
         fill-opacity="0.768678"
         height="128"
         width="128"
         id="rect9"
         x="0"
         y="0" />
    </g>
  </mask>
  <linearGradient
     id="p"
     gradientTransform="matrix(0,1.428571,-1.428571,0,427.2857,12.714302)"
     x1="24"
     x2="38"
     xlink:href="#i"
     y1="238"
     y2="238" />
  <clipPath
     id="q">
    <rect
       height="152"
       width="192"
       id="rect10"
       x="0"
       y="0" />
  </clipPath>
  <clipPath
     id="r">
    <path
       d="m 22,42 h 60 v 61 H 22 Z m 0,0"
       id="path10" />
  </clipPath>
  <clipPath
     id="s">
    <path
       d="m 22.0625,72.179688 c 0,16.535156 13.402344,29.937502 29.9375,29.937502 16.535156,0 29.9375,-13.402346 29.9375,-29.937502 0,-16.535157 -13.402344,-29.9375 -29.9375,-29.9375 -16.535156,0 -29.9375,13.402343 -29.9375,29.9375 z m 0,0"
       id="path11" />
  </clipPath>
  <linearGradient
     id="t"
     gradientTransform="matrix(-1.649999,0,0,1.36,139.40002,-271.75991)"
     x1="31.003128"
     x2="71.043274"
     xlink:href="#c"
     y1="257.06409"
     y2="220.17133" />
  <clipPath
     id="u">
    <path
       d="M 117.19922,22 H 16.398438 C 15.074219,22 14,23.074219 14,24.398438 v 76.800782 c 0,1.32812 1.074219,2.40234 2.398438,2.40234 H 117.19922 c 1.32812,0 2.40234,-1.07422 2.40234,-2.40234 V 24.398438 C 119.60156,23.074219 118.52734,22 117.19922,22 Z m 0,0"
       id="path12" />
  </clipPath>
  <mask
     id="v">
    <g
       filter="url(#g)"
       id="g12">
      <rect
         fill-opacity="0.568457"
         height="128"
         width="128"
         id="rect12"
         x="0"
         y="0" />
    </g>
  </mask>
  <linearGradient
     id="w"
     gradientTransform="matrix(-0.848528,0.848528,0.848528,0.848528,120.40004,-213.99979)"
     x1="212.80272"
     x2="290.80273"
     xlink:href="#i"
     y1="161.29305"
     y2="161.29305" />
  <clipPath
     id="x">
    <rect
       height="152"
       width="192"
       id="rect13"
       x="0"
       y="0" />
  </clipPath>
  <mask
     id="y">
    <g
       filter="url(#g)"
       id="g14">
      <rect
         fill-opacity="0.363132"
         height="128"
         width="128"
         id="rect14"
         x="0"
         y="0" />
    </g>
  </mask>
  <linearGradient
     id="z"
     gradientTransform="matrix(-0.848528,0.848528,0.848528,0.848528,121.60004,-218.79979)"
     x1="202.23254"
     x2="240.79819"
     xlink:href="#i"
     y1="172.83113"
     y2="172.83113" />
  <clipPath
     id="A">
    <rect
       height="152"
       width="192"
       id="rect15"
       x="0"
       y="0" />
  </clipPath>
  <clipPath
     id="B">
    <path
       d="m 22,42 h 60 v 61 H 22 Z m 0,0"
       id="path15" />
  </clipPath>
  <clipPath
     id="C">
    <path
       d="m 22.0625,72.179688 c 0,16.535156 13.402344,29.937502 29.9375,29.937502 16.535156,0 29.9375,-13.402346 29.9375,-29.937502 0,-16.535157 -13.402344,-29.9375 -29.9375,-29.9375 -16.535156,0 -29.9375,13.402343 -29.9375,29.9375 z m 0,0"
       id="path16" />
  </clipPath>
  <mask
     id="D">
    <g
       filter="url(#g)"
       id="g16">
      <rect
         fill-opacity="0.768678"
         height="128"
         width="128"
         id="rect16"
         x="0"
         y="0" />
    </g>
  </mask>
  <linearGradient
     id="E"
     gradientTransform="matrix(0,1.714284,-1.714284,0,501.14263,10.057194)"
     x1="24"
     x2="38"
     xlink:href="#i"
     y1="238"
     y2="238" />
  <clipPath
     id="F">
    <rect
       height="152"
       width="192"
       id="rect17"
       x="0"
       y="0" />
  </clipPath>
  <mask
     id="G">
    <g
       filter="url(#g)"
       id="g18">
      <rect
         fill-opacity="0.154"
         height="128"
         width="128"
         id="rect18"
         x="0"
         y="0" />
    </g>
  </mask>
  <clipPath
     id="H">
    <rect
       height="152"
       width="192"
       id="rect19"
       x="0"
       y="0" />
  </clipPath>
  <mask
     id="I">
    <g
       filter="url(#g)"
       id="g20">
      <rect
         fill-opacity="0.154"
         height="128"
         width="128"
         id="rect20"
         x="0"
         y="0" />
    </g>
  </mask>
  <clipPath
     id="J">
    <rect
       height="152"
       width="192"
       id="rect21"
       x="0"
       y="0" />
  </clipPath>
  <mask
     id="K">
    <g
       filter="url(#g)"
       id="g22">
      <rect
         fill-opacity="0.35"
         height="128"
         width="128"
         id="rect22"
         x="0"
         y="0" />
    </g>
  </mask>
  <radialGradient
     id="L"
     cx="-72"
     cy="190"
     gradientTransform="matrix(-1,0,0,1,-12,-123.88236)"
     gradientUnits="userSpaceOnUse"
     r="29.937637">
    <stop
       offset="0"
       stop-color="#ffffff"
       id="stop22" />
    <stop
       offset="0.271152"
       stop-color="#ffffff"
       stop-opacity="0.866667"
       id="stop23" />
    <stop
       offset="1"
       stop-color="#ffffff"
       stop-opacity="0"
       id="stop24" />
  </radialGradient>
  <clipPath
     id="M">
    <rect
       height="152"
       width="192"
       id="rect24"
       x="0"
       y="0" />
  </clipPath>
  <rect
     style="fill:#f6f5f4;fill-opacity:1;stroke-width:2.74435;stroke-linecap:round"
     id="rect1045"
     width="55"
     height="55"
     x="4.5"
     y="4.5"
     ry="14.999999" />
  <rect
     style="display:inline;fill:url(#linearGradient11);stroke-width:2.04127;stroke-linecap:round"
     id="rect1045-3"
     width="46.538433"
     height="35.961506"
     x="8.7307625"
     y="8.7307682"
     ry="9.8077059" />
  <g
     clip-path="url(#e)"
     id="g30"
     transform="matrix(0.52884565,0,0,0.52884565,-1.8461467,-1.8461434)">
    <g
       clip-path="url(#f)"
       id="g29">
      <g
         clip-path="url(#k)"
         mask="url(#h)"
         transform="translate(-8,-16)"
         id="g27">
        <path
           d="M 40.34375,68.605469 -3.496094,112.44531 c -3.125,3.125 -3.125,8.19141 0,11.3125 l 43.839844,43.84375 c 3.125,3.1211 8.1875,3.1211 11.3125,0 l 43.839844,-43.84375 c 3.125,-3.12109 3.125,-8.1875 0,-11.3125 L 51.65625,68.605469 c -3.125,-3.125 -8.1875,-3.125 -11.3125,0 z m 0,0"
           fill="url(#j)"
           id="path27"
           style="fill:url(#j)" />
      </g>
      <g
         clip-path="url(#n)"
         mask="url(#l)"
         transform="translate(-8,-16)"
         id="g28">
        <path
           d="m 69.34375,77.65625 -43.839844,43.83984 c -3.125,3.125 -3.125,8.19141 0,11.31641 l 43.839844,43.83984 c 3.125,3.125 8.1875,3.125 11.3125,0 l 43.83984,-43.83984 c 3.125,-3.125 3.125,-8.19141 0,-11.31641 L 80.65625,77.65625 c -3.125,-3.125 -8.1875,-3.125 -11.3125,0 z m 0,0"
           fill="url(#m)"
           id="path28"
           style="fill:url(#m)" />
      </g>
    </g>
  </g>
  <g
     clip-path="url(#q)"
     mask="url(#o)"
     transform="matrix(0.52884565,0,0,0.52884565,-6.0769117,-10.307676)"
     id="g31">
    <path
       d="m 93,67 c -5.523438,0 -10,-4.476562 -10,-10 0,-5.523438 4.476562,-10 10,-10 5.523438,0 10,4.476562 10,10 0,5.523438 -4.476562,10 -10,10 z m 0,0"
       fill="url(#p)"
       id="path30"
       style="fill:url(#p)" />
  </g>
</svg>
