<?xml version="1.0" encoding="utf-8"?>
<svg viewBox="0 0 374 470" xmlns="http://www.w3.org/2000/svg">
  <ellipse style="fill: rgb(255, 255, 255);" cx="187" cy="224" rx="186" ry="186" transform="matrix(1, 0, 0, 1, -7.105427357601002e-15, 0)"/>
  <path fill="#231f20" d="M 276.746 252.183 C 277.257 262.798 278.199 274.858 276.645 285.403 C 273.269 308.188 264.199 328.356 249.431 345.908 C 243.403 353.061 236.08 359.306 227.032 362.154 C 226.666 362.27 226.484 362.68 226.647 363.03 C 229.96 370.091 228.814 376.177 220.209 377.676 C 209.81 379.493 195.187 379.424 187.909 370.751 C 183.913 365.993 185.685 362.576 187.443 357.49 C 187.556 357.163 187.41 356.803 187.103 356.638 C 183.319 354.595 179.761 352.252 176.432 349.609 C 173.594 347.372 162.854 346.465 158.46 346.147 C 154.089 345.829 149.878 344.876 145.507 344.251 C 145.132 344.198 144.748 344.279 144.417 344.477 C 136.72 349.054 129.782 351.891 121.188 347.193 C 113.786 343.138 111.379 336.769 111.062 329.105 C 111.032 328.437 110.707 327.818 110.176 327.424 C 72.064 298.973 86.017 243.088 102.479 207.119 C 102.641 206.771 102.368 206.377 101.984 206.41 C 101.94 206.413 101.897 206.422 101.854 206.438 C 98.108 207.755 94.088 208.744 90.524 210.197 C 80.193 214.428 69.851 218.617 59.495 222.764 C 53.593 225.137 42.297 229.407 37.211 224.32 C 29.694 216.793 43.34 200.217 48.45 194.562 C 70.395 170.31 98.744 156.163 130.123 148.283 C 130.487 148.193 130.782 148.003 131.009 147.716 C 140.378 135.953 151.515 126.181 164.42 118.4 C 164.822 118.159 165.268 117.511 165.76 116.459 C 166.896 114.031 168.019 111.6 169.132 109.17 C 183.573 77.663 219.664 63.278 250.952 80.115 C 253.532 81.501 256.297 83.65 259.241 86.565 C 279.006 106.116 281.095 131.196 271.694 156.663 C 271.515 157.157 271.446 157.687 271.49 158.218 C 272.027 164.077 272.566 170.045 273.102 176.124 C 273.171 176.887 273.4 177.592 273.795 178.235 C 279.758 188.105 286.627 197.295 294.401 205.803 C 309.501 222.322 326.575 239.296 328.811 262.697 C 329.504 269.883 328.755 283.03 318.548 283.372 C 312.134 283.586 304.675 274.175 300.531 270.384 C 293.935 264.354 284.785 258.301 277.11 252.001 C 276.97 251.896 276.768 251.982 276.747 252.155 C 276.746 252.164 276.746 252.174 276.746 252.183 Z M 180.791 131.469 C 176.851 133.433 170.54 127.904 167.906 125.078 C 167.436 124.568 166.91 124.497 166.328 124.86 C 153.802 132.726 143.292 142.267 134.8 153.484 C 134.256 154.203 133.692 154.601 133.109 154.676 C 122.391 156.074 112.571 160.263 101.945 164.667 C 81.662 173.054 64.454 185.634 50.323 202.406 C 46.713 206.699 42.103 213.103 41.412 218.769 C 41.325 219.492 41.874 220.136 42.603 220.166 C 45.04 220.264 47.542 219.897 50.107 219.064 C 59.281 216.105 68.268 212.652 77.07 208.709 C 86.425 204.52 95.758 200.908 106.089 199.365 C 114.183 198.151 119.338 197.333 126.048 194.516 C 128.022 193.687 130.521 193.664 131.19 195.957 C 132.927 201.966 114.888 204.588 111.323 205.12 C 110.724 205.206 110.204 205.594 109.949 206.154 C 94.395 239.864 79.068 289.287 110.675 319.693 C 111.01 320.027 111.579 319.872 111.7 319.416 C 111.71 319.38 111.716 319.343 111.719 319.307 C 112.162 314.219 116.08 307.385 122.256 308.09 C 124.526 308.349 126.332 308.77 128.704 308.453 C 135.235 307.574 140.885 309.282 145.653 313.572 C 147.731 315.459 149.56 318.34 151.614 320.691 C 153.907 323.31 155.236 325.185 155.599 326.312 C 156.939 330.413 154.226 334.827 151.342 337.813 C 150.959 338.22 151.149 338.886 151.687 339.015 C 151.711 339.021 151.737 339.025 151.762 339.029 C 159.709 340.153 168.179 340.367 176.057 342.469 C 180.03 343.524 182.96 346.363 186.445 348.61 C 198.796 356.593 216.963 361.19 230.416 353.81 C 253.973 340.878 270.911 300.901 270.98 275.197 C 271.036 253.806 268.595 229.305 266.767 206.507 C 266.165 198.934 266.778 189.452 266.528 182.277 C 266.302 175.76 265.965 169.2 265.519 162.601 C 265.48 161.976 264.998 161.466 264.372 161.387 C 261.954 161.102 251.758 160.297 255.732 155.2 C 263.123 145.728 267.891 138.724 266.257 126.041 C 265.224 118.094 257.912 109.057 249.408 114.745 C 246.809 116.482 246.127 118.99 245.855 121.931 C 245.072 130.401 246.571 137.168 236.047 139.371 C 229.96 140.63 221.242 142.765 216.963 136.737 C 214.297 132.999 211.936 128.304 209.878 122.658 C 209.272 121.008 209.537 119.566 210.671 118.332 C 212.408 116.448 215.101 114.655 216.371 112.032 C 218.225 108.225 218.868 104.134 218.301 99.757 C 217.143 90.879 207.187 91.493 201.17 94.081 C 186.082 100.586 180.417 113.439 181.813 129.664 C 181.874 130.417 181.468 131.133 180.791 131.469 Z M 227.768 127.792 C 229.813 128.015 231.73 125.801 232.051 122.846 C 232.372 119.889 230.975 117.314 228.931 117.092 C 226.886 116.87 224.968 119.085 224.647 122.042 C 224.325 124.994 225.723 127.57 227.768 127.792 Z M 322.567 267.534 C 322.806 249.819 311.214 233.641 299.679 221.255 C 290.651 211.567 282.136 201.522 274.135 191.122 C 273.5 190.297 273.182 190.406 273.182 191.452 C 273.204 207.074 274.545 222.447 275.554 238.013 C 275.782 241.453 276.451 243.008 278.983 245.076 C 285.485 250.38 291.479 255.058 296.967 259.108 C 303.687 264.082 308.91 269.146 314.564 274.753 C 321 281.134 322.511 271.859 322.567 267.534 Z" transform="matrix(1, 0, 0, 1, -7.105427357601002e-15, 0)"/>
  <path fill="#ffffff" d="M 180.791 131.469 C 181.468 131.133 181.874 130.417 181.813 129.664 C 180.417 113.439 186.082 100.586 201.17 94.081 C 207.187 91.493 217.143 90.879 218.301 99.757 C 218.868 104.134 218.225 108.225 216.371 112.032 C 215.101 114.655 212.408 116.448 210.671 118.332 C 209.537 119.566 209.272 121.008 209.878 122.658 C 211.936 128.304 214.297 132.999 216.963 136.737 C 221.242 142.765 229.96 140.63 236.047 139.371 C 246.571 137.168 245.072 130.401 245.855 121.931 C 246.127 118.99 246.809 116.482 249.408 114.745 C 257.912 109.057 265.224 118.094 266.257 126.041 C 267.891 138.724 263.123 145.728 255.732 155.2 C 251.758 160.297 261.954 161.102 264.372 161.387 C 264.998 161.466 265.48 161.976 265.519 162.601 C 265.965 169.2 266.302 175.76 266.528 182.277 C 266.778 189.452 266.165 198.934 266.767 206.507 C 268.595 229.305 271.036 253.806 270.98 275.197 C 270.911 300.901 253.973 340.878 230.416 353.81 C 216.963 361.19 198.796 356.593 186.445 348.61 C 182.96 346.363 180.03 343.524 176.057 342.469 C 168.179 340.367 159.709 340.153 151.762 339.029 C 151.215 338.961 150.953 338.317 151.292 337.873 C 151.308 337.853 151.324 337.833 151.342 337.813 C 154.226 334.827 156.939 330.413 155.599 326.312 C 155.236 325.185 153.907 323.31 151.614 320.691 C 149.56 318.34 147.731 315.459 145.653 313.572 C 140.885 309.282 135.235 307.574 128.704 308.453 C 126.332 308.77 124.526 308.349 122.256 308.09 C 116.08 307.385 112.162 314.219 111.719 319.307 C 111.683 319.776 111.151 320.031 110.762 319.763 C 110.732 319.742 110.701 319.719 110.675 319.693 C 79.068 289.287 94.395 239.864 109.949 206.154 C 110.204 205.594 110.724 205.206 111.323 205.12 C 114.888 204.588 132.927 201.966 131.19 195.957 C 130.521 193.664 128.022 193.687 126.048 194.516 C 119.338 197.333 114.183 198.151 106.089 199.365 C 95.758 200.908 86.425 204.52 77.07 208.709 C 68.268 212.652 59.281 216.105 50.107 219.064 C 47.542 219.897 45.04 220.264 42.603 220.166 C 41.874 220.136 41.325 219.492 41.412 218.769 C 42.103 213.103 46.713 206.699 50.323 202.406 C 64.454 185.634 81.662 173.054 101.945 164.667 C 112.571 160.263 122.391 156.074 133.109 154.676 C 133.692 154.601 134.256 154.203 134.8 153.484 C 143.292 142.267 153.802 132.726 166.328 124.86 C 166.91 124.497 167.436 124.568 167.906 125.078 C 170.54 127.904 176.851 133.433 180.791 131.469 Z M 205.099 116.868 L 207.925 108.182 C 208.506 106.4 207.53 104.481 205.745 103.902 L 202.974 103.004 C 198.902 101.686 194.508 103.992 193.155 108.16 L 193.144 108.205 C 191.795 112.369 193.994 116.813 198.06 118.14 L 200.83 119.049 C 202.609 119.621 204.52 118.647 205.099 116.868 Z M 255.83 141.691 C 259.632 142.301 263.326 138.974 264.08 134.262 C 264.834 129.551 262.365 125.237 258.563 124.63 C 254.761 124.021 251.069 127.347 250.313 132.057 C 249.559 136.77 252.029 141.084 255.83 141.691 Z" transform="matrix(1, 0, 0, 1, -7.105427357601002e-15, 0)"/>
  <path fill="#231f20" d="M 205.099 116.868 C 204.52 118.647 202.609 119.621 200.83 119.049 L 198.06 118.14 C 193.994 116.813 191.795 112.369 193.144 108.205 L 193.155 108.16 C 194.508 103.992 198.902 101.686 202.974 103.004 L 205.745 103.902 C 207.53 104.481 208.506 106.4 207.925 108.182 L 205.099 116.868 Z" transform="matrix(1, 0, 0, 1, -7.105427357601002e-15, 0)"/>
  <ellipse fill="#ffffff" transform="matrix(-0.10799100250005722, 0.9941520690917969, -0.9941500425338745, -0.10800700634717941, 228.34930419921875, 122.44210815429688)" rx="5.381" ry="3.724"/>
  <ellipse fill="#231f20" transform="matrix(-0.15814700722694397, 0.9874160885810852, -0.9874120950698853, -0.15817001461982727, 257.19720458984375, 133.1601104736328)" rx="8.64" ry="6.972"/>
  <path fill="#ffffff" d="M 299.679 221.255 C 311.214 233.641 322.806 249.819 322.567 267.534 C 322.511 271.859 321 281.134 314.564 274.753 C 308.91 269.146 303.687 264.082 296.967 259.108 C 291.479 255.058 285.485 250.38 278.983 245.076 C 276.451 243.008 275.782 241.453 275.554 238.013 C 274.545 222.447 273.204 207.074 273.182 191.452 C 273.182 190.406 273.5 190.297 274.135 191.122 C 282.136 201.522 290.651 211.567 299.679 221.255 Z" transform="matrix(1, 0, 0, 1, -7.105427357601002e-15, 0)"/>
</svg>