<?xml version="1.0" encoding="UTF-8" standalone="no"?>
<svg
   height="16px"
   viewBox="0 0 16 16"
   width="16px"
   version="1.1"
   id="svg1"
   sodipodi:docname="close-hover.svg"
   inkscape:version="1.4.2 (ebf0e940d0, 2025-05-08)"
   xmlns:inkscape="http://www.inkscape.org/namespaces/inkscape"
   xmlns:sodipodi="http://sodipodi.sourceforge.net/DTD/sodipodi-0.dtd"
   xmlns="http://www.w3.org/2000/svg"
   xmlns:svg="http://www.w3.org/2000/svg">
  <defs
     id="defs1" />
  <sodipodi:namedview
     id="namedview1"
     pagecolor="#ffffff"
     bordercolor="#000000"
     borderopacity="0.25"
     inkscape:showpageshadow="2"
     inkscape:pageopacity="0.0"
     inkscape:pagecheckerboard="0"
     inkscape:deskcolor="#d1d1d1"
     inkscape:zoom="54.875"
     inkscape:cx="7.9908884"
     inkscape:cy="8"
     inkscape:window-width="1920"
     inkscape:window-height="1131"
     inkscape:window-x="0"
     inkscape:window-y="0"
     inkscape:window-maximized="1"
     inkscape:current-layer="svg1" />
  <circle
     style="fill:#ff605c;stroke-width:1.47616;fill-opacity:1"
     id="path2"
     cx="8"
     cy="8"
     r="8"
     inkscape:label="path2" />
  <path
     d="m 5.0026357,5 h 0.7496705 0.023427 C 5.9660793,5.00879 6.1593541,5.096679 6.2911319,5.234375 L 8.0013179,6.9453125 9.734931,5.234375 C 9.9340622,5.0615232 10.068768,5.005859 10.250329,5 H 11 v 0.75 c 0,0.213867 -0.02636,0.4130857 -0.187418,0.5625 l -1.7101855,1.7109375 1.6867585,1.6875 C 10.929718,9.8515625 11,10.050781 11,10.25 V 11 H 10.250329 C 10.051198,11 9.852067,10.929688 9.7115038,10.789063 L 8.0013179,9.078125 6.2911319,10.789063 C 6.1505687,10.929688 5.9514375,11 5.7523062,11 H 5.0026357 v -0.75 c 0,-0.199219 0.070282,-0.3984375 0.2108448,-0.5390625 l 1.710186,-1.6875 L 5.2134805,6.3125 C 5.0553465,6.166016 4.9850649,5.9609375 5.0026357,5.75 Z m 0,0"
     fill="#2e3436"
     id="path1"
     style="stroke-width:0.749835" />
</svg>
