<?xml version="1.0" encoding="UTF-8" standalone="no"?>
<!-- Created with Inkscape (http://www.inkscape.org/) -->

<svg
   width="64"
   height="64"
   version="1.1"
   viewBox="0 0 16.933 16.933"
   id="svg6"
   sodipodi:docname="folder-open.svg"
   inkscape:version="1.4 (e7c3feb100, 2024-10-09)"
   xmlns:inkscape="http://www.inkscape.org/namespaces/inkscape"
   xmlns:sodipodi="http://sodipodi.sourceforge.net/DTD/sodipodi-0.dtd"
   xmlns="http://www.w3.org/2000/svg"
   xmlns:svg="http://www.w3.org/2000/svg"
   xmlns:rdf="http://www.w3.org/1999/02/22-rdf-syntax-ns#"
   xmlns:cc="http://creativecommons.org/ns#"
   xmlns:dc="http://purl.org/dc/elements/1.1/">
  <sodipodi:namedview
     id="namedview6"
     pagecolor="#ffffff"
     bordercolor="#000000"
     borderopacity="0.25"
     inkscape:showpageshadow="2"
     inkscape:pageopacity="0.0"
     inkscape:pagecheckerboard="0"
     inkscape:deskcolor="#d1d1d1"
     inkscape:zoom="15.375"
     inkscape:cx="32.03252"
     inkscape:cy="32"
     inkscape:window-width="2226"
     inkscape:window-height="1186"
     inkscape:window-x="0"
     inkscape:window-y="0"
     inkscape:window-maximized="1"
     inkscape:current-layer="svg6" />
  <defs
     id="defs1">
    <filter
       id="filter2076-6"
       x="-0.048000001"
       y="-0.048000001"
       width="1.096"
       height="1.096"
       color-interpolation-filters="sRGB">
      <feGaussianBlur
         stdDeviation="1.1"
         id="feGaussianBlur1" />
    </filter>
  </defs>
  <metadata
     id="metadata1">
    <rdf:RDF>
      <cc:Work
         rdf:about="">
        <dc:format>image/svg+xml</dc:format>
        <dc:type
           rdf:resource="http://purl.org/dc/dcmitype/StillImage" />
      </cc:Work>
    </rdf:RDF>
  </metadata>
  <rect
     transform="scale(.26458)"
     x="4.5"
     y="4.5"
     width="55"
     height="55"
     rx="13.002"
     ry="13.002"
     filter="url(#filter2076-6)"
     opacity=".3"
     id="rect1" />
  <path
     d="m 4.631,1.1906 c -1.9058,0 -3.44,1.5342 -3.44,3.44 v 7.6717 c 0,1.9058 1.5342,3.44 3.44,3.44 h 7.6717 c 1.9058,0 3.44,-1.5342 3.44,-3.44 V 4.6306 c 0,-1.9058 -1.5342,-3.44 -3.44,-3.44 z"
     fill="#f5aa1e"
     stroke-linecap="round"
     stroke-width="0.079373"
     style="paint-order:stroke fill markers;fill:#3584e4;fill-opacity:1"
     id="path1"
     sodipodi:nodetypes="sssssssss" />
  <path
     d="m 4.852,2.7781 c -1.1488,0 -2.0737,0.92498 -2.0737,2.0737 v 7.2294 c 0,1.1488 0.92498,2.0737 2.0737,2.0737 h 7.2294 c 1.1488,0 2.0737,-0.92498 2.0737,-2.0737 V 4.8518 c 0,-1.1488 -0.92498,-2.0737 -2.0737,-2.0737 z"
     fill="#fafafa"
     stroke-linecap="round"
     stroke-width="0.079373"
     style="paint-order:stroke fill markers"
     id="path2"
     sodipodi:nodetypes="sssssssss" />
  <g
     fill="#f08705"
     stroke-width=".67718"
     id="g5"
     style="fill:#3584e4;fill-opacity:1;opacity:0.75">
    <path
       d="m 4.264,4.2277 c 0.005,0.04062 0.0099,0.08118 0.01548,0.12163 h 8.376 c 0.0052,-0.0437 0.0097,-0.07849 0.01437,-0.12163 z"
       opacity="0.6"
       style="opacity:0.75;paint-order:normal;fill:#3584e4;fill-opacity:1"
       id="path3"
       sodipodi:nodetypes="ccccc" />
    <path
       d="m 4.264,7.412 c 0.005,0.04062 0.0099,0.08118 0.01548,0.12163 h 8.376 c 0.0052,-0.0437 0.0097,-0.07849 0.01437,-0.12163 z"
       opacity="0.6"
       style="opacity:0.75;paint-order:normal;fill:#3584e4;fill-opacity:1"
       id="path4"
       sodipodi:nodetypes="ccccc" />
    <path
       d="m4.264 12.117c5e-3 0.04062 0.0099 0.08118 0.01548 0.12163h8.376c0.0052-0.0437 0.0097-0.07849 0.01437-0.12163z"
       opacity=".6"
       style="paint-order:normal;fill:#3584e4;fill-opacity:1"
       id="path5" />
  </g>
  <path
     d="m 1.752,6.352 c -0.31183,0 -0.56274,0.25092 -0.56274,0.56274 v 1.8278 c 0,0.02268 0.0041,0.04418 0.0067,0.06615 -0.0055,0.54053 -0.0052,-1.6054 -0.0052,-0.79686 V 8.2361 h -5.16e-4 v 4.0663 c 0,0.03645 0.0041,0.07184 0.0052,0.108 0.002,0.05118 0.0031,0.10258 0.0078,0.15296 0.12639,1.6956 1.4693,3.0388 3.1646,3.1662 0.08518,0.0081 0.17144,0.0128 0.25941,0.01292 0.0012,3e-6 0.0024,0 0.0036,0 h 7.6717 c 0.08936,0 0.17707,-0.0047 0.26354,-0.01292 1.691,-0.12755 3.0311,-1.4649 3.1625,-3.1548 0.0087,-0.08956 0.01395,-0.18019 0.01395,-0.27233 v -4.1439 c 1.6e-5,-0.0018 5.17e-4,-0.007 5.17e-4,-0.0052 v 0.93426 c 0,0.31183 -0.25092,-0.56274 -0.56274,-0.56274 h -6.0068 c -0.27152,0 -0.48409,-0.01833 -0.66041,-0.06511 C 8.336791,8.41296 8.197041,8.33747 8.072321,8.2241 7.947601,8.11073 7.837671,7.9593 7.720931,7.75954 7.604191,7.55977 7.480571,7.31208 7.328201,7.00611 7.254711,6.8253 7.152081,6.69384 7.039851,6.59891 6.927621,6.50398 6.806001,6.44543 6.693111,6.40926 6.467331,6.33692 6.278161,6.355 6.278161,6.355 h -2.5533 C 3.714381,6.354425 3.704501,6.3519 3.693851,6.3519 h -0.91517 z"
     fill="#ffc841"
     stroke-width="0.26458"
     id="path6"
     style="fill:#78aeed;fill-opacity:1"
     sodipodi:nodetypes="csscsccscccsssccscssssssccssccscc" />
</svg>
