<?xml version="1.0" encoding="UTF-8" standalone="no"?>
<svg
   width="64"
   height="64"
   version="1.1"
   viewBox="0 0 16.933 16.933"
   id="svg5"
   sodipodi:docname="folder-cloud.svg"
   inkscape:version="1.4 (e7c3feb100, 2024-10-09)"
   xmlns:inkscape="http://www.inkscape.org/namespaces/inkscape"
   xmlns:sodipodi="http://sodipodi.sourceforge.net/DTD/sodipodi-0.dtd"
   xmlns="http://www.w3.org/2000/svg"
   xmlns:svg="http://www.w3.org/2000/svg"
   xmlns:rdf="http://www.w3.org/1999/02/22-rdf-syntax-ns#"
   xmlns:cc="http://creativecommons.org/ns#"
   xmlns:dc="http://purl.org/dc/elements/1.1/">
  <sodipodi:namedview
     id="namedview5"
     pagecolor="#ffffff"
     bordercolor="#000000"
     borderopacity="0.25"
     inkscape:showpageshadow="2"
     inkscape:pageopacity="0.0"
     inkscape:pagecheckerboard="0"
     inkscape:deskcolor="#d1d1d1"
     inkscape:zoom="10.871767"
     inkscape:cx="36.700567"
     inkscape:cy="27.50243"
     inkscape:window-width="1185"
     inkscape:window-height="1186"
     inkscape:window-x="0"
     inkscape:window-y="0"
     inkscape:window-maximized="0"
     inkscape:current-layer="g4" />
  <defs
     id="defs1">
    <filter
       id="filter2076-6"
       x="-0.048000001"
       y="-0.048000001"
       width="1.096"
       height="1.096"
       color-interpolation-filters="sRGB">
      <feGaussianBlur
         stdDeviation="1.1"
         id="feGaussianBlur1" />
    </filter>
  </defs>
  <metadata
     id="metadata1">
    <rdf:RDF>
      <cc:Work
         rdf:about="">
        <dc:format>image/svg+xml</dc:format>
        <dc:type
           rdf:resource="http://purl.org/dc/dcmitype/StillImage" />
      </cc:Work>
    </rdf:RDF>
  </metadata>
  <g
     transform="translate(22.567 1.4569)"
     id="g4">
    <rect
       transform="matrix(.26458 0 0 .26458 -22.567 -1.4569)"
       x="4.5"
       y="4.5"
       width="55"
       height="55"
       rx="13.002"
       ry="13.002"
       filter="url(#filter2076-6)"
       opacity=".3"
       id="rect1" />
    <path
       d="m -17.937,-0.26633 c -1.9058,0 -3.44,1.5342 -3.44,3.44 v 7.6717 c 0,1.9058 1.5342,3.44 3.44,3.44 h 7.6717 c 1.9058,0 3.44,-1.5342 3.44,-3.44 v -7.6717 c 0,-1.9058 -1.5342,-3.44 -3.44,-3.44 z"
       fill="#f5aa1e"
       stroke-linecap="round"
       stroke-width="0.079373"
       style="paint-order:stroke fill markers;fill:#3584e4;fill-opacity:1"
       id="path1"
       sodipodi:nodetypes="sssssssss" />
    <path
       d="m-17.715 1.3211c-1.1488 0-2.0737 0.92498-2.0737 2.0737v7.2294c0 1.1488 0.92498 2.0737 2.0737 2.0737h7.2294c1.1488 0 2.0737-0.92498 2.0737-2.0737v-7.2294c0-1.1488-0.92498-2.0737-2.0737-2.0737z"
       fill="#fafafa"
       stroke-linecap="round"
       stroke-width=".079373"
       style="paint-order:stroke fill markers"
       id="path2" />
    <path
       d="m-18.304 2.7707c5e-3 0.04062 0.0099 0.08118 0.01548 0.12163h8.376c0.0052-0.0437 0.0097-0.07849 0.01437-0.12163z"
       fill="#f08705"
       opacity=".6"
       stroke-width=".67718"
       style="paint-order:normal;fill:#3584e4;fill-opacity:1;opacity:0.75"
       id="path3" />
    <path
       d="m -20.815,2.133 c -0.31183,0 -0.56274,0.25092 -0.56274,0.56274 v 1.8278 c 0,0.02268 0.0041,0.04418 0.0067,0.06615 -0.0055,0.54053 -0.0052,1.1567 -0.0052,1.9652 v 0.22427 h -5.16e-4 v 4.0663 c 0,0.03645 0.0041,0.07184 0.0052,0.108 0.002,0.05118 0.0031,0.10258 0.0078,0.15296 0.12639,1.6956 1.4693,3.0388 3.1646,3.1662 0.08518,0.0081 0.17144,0.0128 0.25941,0.01292 0.0012,3e-6 0.0024,0 0.0036,0 h 7.6712 5.17e-4 c 0.08936,0 0.17707,-0.0047 0.26354,-0.01292 1.691,-0.12755 3.0311,-1.4649 3.1625,-3.1548 0.0087,-0.08956 0.01395,-0.18019 0.01395,-0.27233 v -4.1439 c 1.6e-5,-0.0018 5.17e-4,-0.0034 5.17e-4,-0.0052 v -1.8278 c 0,-0.31183 -0.25092,-0.56274 -0.56274,-0.56274 h -6.0068 c -0.27152,0 -0.48409,-0.01833 -0.66041,-0.06511 -0.17632,-0.04678 -0.31607,-0.12227 -0.44079,-0.23564 -0.12472,-0.11337 -0.23465,-0.2648 -0.35139,-0.46456 -0.11674,-0.19977 -0.24036,-0.44746 -0.39273,-0.75343 -0.07349,-0.18081 -0.17612,-0.31227 -0.28835,-0.4072 -0.11223,-0.09493 -0.23385,-0.15348 -0.34674,-0.18965 -0.22578,-0.07234 -0.41495,-0.05426 -0.41495,-0.05426 h -2.5533 c -0.01048,-5.75e-4 -0.02036,-0.0031 -0.03101,-0.0031 h -0.91517 z"
       fill="#ffc841"
       stroke-width="0.26458"
       id="path4"
       style="fill:#78aeed;fill-opacity:1"
       sodipodi:nodetypes="csscsccscccsscsccscssssssccssccscc" />
  </g>
  <path
     d="m9.0618 8.4035c-0.82735 0-1.5387 0.47728-1.8526 1.1606-0.16789-0.13024-0.37928-0.20774-0.60822-0.20774-0.53927 0-0.97786 0.43039-0.99165 0.96633-0.55664 0.20877-0.9529 0.74554-0.9529 1.3751 0 0.74366 0.55309 1.3583 1.2702 1.4552v0.01292h5.0797v-0.0021c0.70828-0.04109 1.2702-0.62863 1.2702-1.3472 0-0.69298-0.52272-1.2639-1.1953-1.3405 0.0029-0.04225 0.0047-0.0847 0.0047-0.12764-3e-6 -1.074-0.90628-1.9445-2.0241-1.9445z"
     fill="#fff"
     stroke-linecap="round"
     stroke-width=".52916"
     id="path5" />
</svg>
