<?xml version="1.0" encoding="UTF-8" standalone="no"?>
<svg
   width="64"
   height="64"
   version="1.1"
   id="svg9"
   sodipodi:docname="dropbox.svg"
   xml:space="preserve"
   inkscape:version="1.4 (e7c3feb100, 2024-10-09)"
   xmlns:inkscape="http://www.inkscape.org/namespaces/inkscape"
   xmlns:sodipodi="http://sodipodi.sourceforge.net/DTD/sodipodi-0.dtd"
   xmlns="http://www.w3.org/2000/svg"
   xmlns:svg="http://www.w3.org/2000/svg"><defs
     id="defs9"><filter
       id="filter1057"
       x="-0.026999999"
       y="-0.026999999"
       width="1.054"
       height="1.054"
       color-interpolation-filters="sRGB"><feGaussianBlur
         stdDeviation="0.61875"
         id="feGaussianBlur864" /></filter><linearGradient
       id="linearGradient1053"
       x1="-127"
       x2="-72"
       y1="60"
       y2="5"
       gradientTransform="translate(131.5,-0.50999966)"
       gradientUnits="userSpaceOnUse"><stop
         stop-color="#32d7ff"
         offset="0"
         id="stop867" /><stop
         stop-color="#329bff"
         offset="1"
         id="stop869" /></linearGradient><filter
       id="filter1655"
       x="-0.073499489"
       y="-0.097999317"
       width="1.146999"
       height="1.1959986"
       color-interpolation-filters="sRGB"><feGaussianBlur
         stdDeviation="0.32410824"
         id="feGaussianBlur917" /></filter><linearGradient
       id="linearGradient1005"
       x1="0.8714"
       x2="16.246"
       y1="16.164"
       y2="0.78937"
       gradientTransform="matrix(5.4039347,0,0,5.4039347,-6.9921554,-185.85668)"
       gradientUnits="userSpaceOnUse"><stop
         stop-color="#00c8ff"
         offset="0"
         id="stop1" /><stop
         stop-color="#14a0ff"
         offset="1"
         id="stop2" /></linearGradient></defs><sodipodi:namedview
     id="namedview9"
     pagecolor="#ffffff"
     bordercolor="#000000"
     borderopacity="0.25"
     inkscape:showpageshadow="2"
     inkscape:pageopacity="0.0"
     inkscape:pagecheckerboard="0"
     inkscape:deskcolor="#d1d1d1"
     showguides="true"
     inkscape:zoom="8.7062522"
     inkscape:cx="29.404156"
     inkscape:cy="36.410615"
     inkscape:window-width="2560"
     inkscape:window-height="1371"
     inkscape:window-x="0"
     inkscape:window-y="0"
     inkscape:window-maximized="1"
     inkscape:current-layer="g25" /><g
     id="g25"
     transform="matrix(0.69941665,0,0,0.69941665,4.675756,129.72022)"
     style="fill:#ffffff;fill-opacity:1"><path
       d="m 81.844428,-140.13914 c 0,5.14201 -0.905104,10.07239 -2.564978,14.64088 -1.153794,3.17579 -2.67165,6.17832 -4.506449,8.9554 -0.768548,1.16768 -1.594916,2.29532 -2.472083,3.37897 -2.808209,3.46819 -6.145356,6.48851 -9.891903,8.93973 -1.379624,0.90343 -2.813505,1.72975 -4.298019,2.47019 -5.764919,2.885106 -12.272876,4.508076 -19.160191,4.508076 -6.887316,0 -13.395275,-1.62291 -19.160192,-4.508176 -1.484677,-0.74061 -2.920286,-1.56704 -4.299857,-2.4702 -3.793886,-2.48435 -7.1710216,-5.552 -10.0021421,-9.07752 -0.878841,-1.09247 -1.7035368,-2.23042 -2.4720844,-3.4087 -1.7857896,-2.73115 -3.26516524,-5.67791 -4.3961077,-8.7922 -1.6596545,-4.56795 -2.563136,-9.49634 -2.563136,-14.63656 0,-23.68977 19.2045052,-42.89427 42.8942752,-42.89427 11.891358,0 22.651674,4.83917 30.420911,12.65439 2.239173,2.25144 4.22982,4.75168 5.924332,7.45473 1.602051,2.54569 2.941309,5.27327 3.982917,8.14265 1.65998,4.56951 2.56514,9.49958 2.56514,14.64088 z"
       fill="url(#linearGradient1005)"
       stroke-width="0.167554"
       id="path7"
       style="fill:url(#linearGradient1005)" /><path
       id="path22"
       style="fill:#ffffff;stroke:none;stroke-width:4.02579;stroke-linecap:round;stroke-linejoin:round;fill-opacity:1"
       d="m 38.82612,-132.97564 -15.481894,10.05819 15.66347,9.90454 15.782461,-9.90454 z"
       sodipodi:nodetypes="ccccc" /><g
       id="g24"
       style="fill:#ffffff;fill-opacity:1"><path
         id="path13"
         style="fill:#ffffff;stroke:none;stroke-width:4.02579;stroke-linecap:round;stroke-linejoin:round;fill-opacity:1"
         d="m 22.379419,-166.42059 -15.4818937,10.05818 15.6634697,9.90454 15.782461,-9.90454 z"
         sodipodi:nodetypes="ccccc" /><path
         id="path19"
         style="fill:#ffffff;stroke:none;stroke-width:4.02579;stroke-linecap:round;stroke-linejoin:round;fill-opacity:1"
         d="m 22.379419,-146.45787 -15.4818937,10.05819 15.6634697,9.90454 15.782461,-9.90454 z"
         sodipodi:nodetypes="ccccc" /><path
         id="path23"
         style="fill:#ffffff;stroke:none;stroke-width:4.02579;stroke-linecap:round;stroke-linejoin:round;fill-opacity:1"
         d="m 55.27282,-166.42059 -15.481894,10.05818 15.66347,9.90454 15.782461,-9.90454 z"
         sodipodi:nodetypes="ccccc" /><path
         id="path24"
         style="fill:#ffffff;stroke:none;stroke-width:4.02579;stroke-linecap:round;stroke-linejoin:round;fill-opacity:1"
         d="m 55.27282,-146.45787 -15.481894,10.05819 15.66347,9.90454 15.782461,-9.90454 z"
         sodipodi:nodetypes="ccccc" /></g></g></svg>
