<?xml version="1.0" encoding="UTF-8" standalone="no"?>
<svg
   version="1.1"
   width="255.99997"
   height="256"
   id="svg2855"
   sodipodi:docname="infinity-logo.svg"
   inkscape:version="1.3.2 (091e20ef0f, 2023-11-25)"
   inkscape:export-filename="infinity-logo.png"
   inkscape:export-xdpi="96"
   inkscape:export-ydpi="96"
   xmlns:inkscape="http://www.inkscape.org/namespaces/inkscape"
   xmlns:sodipodi="http://sodipodi.sourceforge.net/DTD/sodipodi-0.dtd"
   xmlns="http://www.w3.org/2000/svg"
   xmlns:svg="http://www.w3.org/2000/svg"
   xmlns:rdf="http://www.w3.org/1999/02/22-rdf-syntax-ns#"
   xmlns:cc="http://creativecommons.org/ns#"
   xmlns:dc="http://purl.org/dc/elements/1.1/">
  <metadata
     id="metadata20">
    <rdf:RDF>
      <cc:Work
         rdf:about="">
        <dc:format>image/svg+xml</dc:format>
        <dc:type
           rdf:resource="http://purl.org/dc/dcmitype/StillImage" />
      </cc:Work>
    </rdf:RDF>
  </metadata>
  <sodipodi:namedview
     pagecolor="#ffffff"
     bordercolor="#666666"
     borderopacity="1"
     objecttolerance="10"
     gridtolerance="10"
     guidetolerance="10"
     inkscape:pageopacity="0"
     inkscape:pageshadow="2"
     inkscape:window-width="1368"
     inkscape:window-height="843"
     id="namedview18"
     showgrid="false"
     inkscape:zoom="0.78185295"
     inkscape:cx="46.044464"
     inkscape:cy="245.57048"
     inkscape:window-x="0"
     inkscape:window-y="0"
     inkscape:window-maximized="1"
     inkscape:current-layer="svg2855"
     inkscape:showpageshadow="2"
     inkscape:pagecheckerboard="0"
     inkscape:deskcolor="#d1d1d1" />
  <defs
     id="defs2857" />
  <path
     id="path1616"
     style="opacity:1;fill:#51a2da;fill-opacity:1;fill-rule:nonzero;stroke:none;stroke-width:1.64677"
     d="M 128.01337,0 C 57.338375,0 0.068702,57.26824 0.02262,127.91721 H 0 v 99.05835 H 0.02262 C 0.05654,243.01463 13.056845,256 29.106375,256 h 0.1381 0.0227 98.796495 C 198.7475,255.9548 255.99997,198.69442 255.99997,128.02756 256.00007,57.33082 198.71636,0 128.00935,0 Z m 25.93509,52.6916 c 21.49692,0 41.78901,16.45978 41.78901,39.15951 0,2.10518 0.0123,4.21251 -0.33168,6.60021 -0.59547,6.03948 -6.11496,10.3789 -12.12521,9.52748 -6.01022,-0.86135 -10.08842,-6.5684 -8.97652,-12.53772 0.1019,-0.68138 0.13811,-1.75122 0.13811,-3.58997 0,-12.87026 -10.53298,-17.83999 -20.49404,-17.83999 -9.95507,0 -18.92344,8.37102 -18.94722,17.83999 0.17206,10.95297 0,21.82139 0,32.75252 l 18.47764,-0.1381 c 14.4246,-0.29881 14.58818,21.42988 0.16642,21.31952 l -18.64338,0.13811 c -0.0452,8.80984 0.0679,7.21684 0.0226,11.65392 0,0 0.15623,10.77561 -0.16528,18.94449 -2.22989,23.99165 -22.66043,43.16377 -47.202545,43.16377 -26.01251,0 -47.45102,-21.26087 -47.45102,-47.33371 0.7811,-26.82227 22.17003,-47.91563 49.10822,-47.66514 l 15.025255,-0.11313 v 21.2919 l -15.025255,0.13808 h -0.0793 c -14.8053,0.43805 -27.4879,10.49276 -27.7304,26.34564 0,14.44458 11.66933,26.01421 26.15608,26.01421 14.462845,0 26.045565,-10.52445 26.045565,-25.98659 l -0.0226,-80.61167 c 0.007,-1.49646 0.0566,-2.68516 0.22074,-4.33577 2.44226,-19.71893 20.0848,-34.7409 40.04893,-34.7409 z"
     sodipodi:nodetypes="cccccscccccccscccsscccccccscccccccsccccc" />
</svg>
